<mxfile host="www.draw.io" modified="2019-12-18T02:30:46.509Z" agent="Mozilla/5.0 (Windows NT 10.0; Win64; x64) AppleWebKit/537.36 (KHTML, like Gecko) Chrome/79.0.3945.79 Safari/537.36" etag="zkA9SpwSdJK7xZDW_b9g" version="12.4.3" type="github" pages="1">
  <diagram id="F12OOtzi5yDr2JlAIKST" name="Page-1">
    <mxGraphModel dx="1545" dy="780" grid="1" gridSize="10" guides="1" tooltips="1" connect="1" arrows="1" fold="1" page="1" pageScale="1" pageWidth="827" pageHeight="1169" math="0" shadow="0">
      <root>
        <mxCell id="0"/>
        <mxCell id="1" parent="0"/>
        <mxCell id="2OX0F95EaQiFvujl2XbO-1" value="" style="rounded=0;whiteSpace=wrap;html=1;" vertex="1" parent="1">
          <mxGeometry x="40" y="70" width="170" height="260" as="geometry"/>
        </mxCell>
        <mxCell id="2OX0F95EaQiFvujl2XbO-2" value="数据采集" style="text;html=1;strokeColor=none;fillColor=none;align=center;verticalAlign=middle;whiteSpace=wrap;rounded=0;" vertex="1" parent="1">
          <mxGeometry x="97.5" y="80" width="55" height="20" as="geometry"/>
        </mxCell>
        <mxCell id="2OX0F95EaQiFvujl2XbO-3" value="topic-信令" style="rounded=0;whiteSpace=wrap;html=1;" vertex="1" parent="1">
          <mxGeometry x="140" y="110" width="70" height="20" as="geometry"/>
        </mxCell>
        <mxCell id="2OX0F95EaQiFvujl2XbO-4" value="topic-dpi" style="rounded=0;whiteSpace=wrap;html=1;" vertex="1" parent="1">
          <mxGeometry x="140" y="150" width="70" height="20" as="geometry"/>
        </mxCell>
        <mxCell id="2OX0F95EaQiFvujl2XbO-5" value="topic-流量" style="rounded=0;whiteSpace=wrap;html=1;" vertex="1" parent="1">
          <mxGeometry x="140" y="190" width="70" height="20" as="geometry"/>
        </mxCell>
        <mxCell id="2OX0F95EaQiFvujl2XbO-6" value="topic-漫游" style="rounded=0;whiteSpace=wrap;html=1;" vertex="1" parent="1">
          <mxGeometry x="140" y="230" width="70" height="20" as="geometry"/>
        </mxCell>
        <mxCell id="2OX0F95EaQiFvujl2XbO-7" value="topic-... ..." style="rounded=0;whiteSpace=wrap;html=1;" vertex="1" parent="1">
          <mxGeometry x="140" y="270" width="70" height="20" as="geometry"/>
        </mxCell>
      </root>
    </mxGraphModel>
  </diagram>
</mxfile>
